HIERARCHY
ROOT Hips
{
	OFFSET 0.000000 0.000000 0.000000
	CHANNELS 6 Xposition Yposition Zposition Zrotation Yrotation Xrotation 
	JOINT LHipJoint
	{
		OFFSET 0.000000 0.000000 0.000000
		CHANNELS 3 Zrotation Yrotation Xrotation
		JOINT LeftUpLeg
		{
			OFFSET 1.363060 -1.794630 0.839290
			CHANNELS 3 Zrotation Yrotation Xrotation
			JOINT LeftLeg
			{
				OFFSET 2.448110 -6.726130 0.000000
				CHANNELS 3 Zrotation Yrotation Xrotation
				JOINT LeftFoot
				{
					OFFSET 2.562200 -7.039590 0.000000
					CHANNELS 3 Zrotation Yrotation Xrotation
					JOINT LeftToeBase
					{
						OFFSET 0.157640 -0.433110 2.322550
						CHANNELS 3 Zrotation Yrotation Xrotation
						End Site
						{
							OFFSET 0.000000 0.000000 0.000000
						}
					}
				}
			}
		}
	}
	JOINT RHipJoint
	{
		OFFSET 0.000000 0.000000 0.000000
		CHANNELS 3 Zrotation Yrotation Xrotation
		JOINT RightUpLeg
		{
			OFFSET -1.305520 -1.794630 0.839290
			CHANNELS 3 Zrotation Yrotation Xrotation
			JOINT RightLeg
			{
				OFFSET -2.542530 -6.985550 0.000000
				CHANNELS 3 Zrotation Yrotation Xrotation
				JOINT RightFoot
				{
					OFFSET -2.568260 -7.056230 0.000000
					CHANNELS 3 Zrotation Yrotation Xrotation
					JOINT RightToeBase
					{
						OFFSET -0.164730 -0.452590 2.363150
						CHANNELS 3 Zrotation Yrotation Xrotation
						End Site
						{
							OFFSET 0.000000 0.000000 0.000000
						}
					}
				}
			}
		}
	}
}
MOTION
Frames: 34
Frame Time: 0.008333
5.786568 17.022948 2.308657 -9.918659 -87.105977 8.129915 -11.244193 5.675673 0.890892 1.106032 7.486672 14.789083 -0.165228 2.296296 24.033551 0.863992 0.210166 18.610647 -0.287600 -0.000000 -84.238600 9.155553 -1.177782 1.130200 10.405202 -7.482082 -19.725135 1.988295 -0.246196 12.598787 -1.602381 -9.475059 2.271880 -2.427800 -0.000000 -28.860601
5.636186 17.036655 2.270425 -11.184254 -87.020482 9.266703 -11.369317 5.691586 0.866961 1.714118 7.721364 13.948213 -0.035532 2.377761 25.975035 0.974300 -0.211251 20.542382 -0.557601 0.000000 -83.158400 9.110315 -1.206546 1.078355 10.548356 -7.310557 -19.385642 1.960212 -0.328646 13.657496 -1.615509 -9.377783 1.566258 -2.266900 -0.000000 -26.641000
5.488978 17.049306 2.231036 -12.140883 -86.892529 10.085402 -11.492527 5.685722 0.830615 2.322052 7.991962 13.017485 0.086072 2.446491 28.014263 1.103518 -0.514737 22.445698 -0.799500 0.000000 -81.355500 9.067441 -1.231375 1.013417 10.700070 -7.201553 -18.944699 1.941233 -0.390230 14.532936 -1.633159 -9.300227 0.803475 -2.102500 0.000000 -24.396100
5.344715 17.060654 2.191012 -12.947051 -86.723704 10.749799 -11.616508 5.659046 0.783329 2.932715 8.294449 11.993806 0.196056 2.504352 30.143596 1.248002 -0.634818 24.237495 -0.966300 -0.000000 -78.730600 9.021492 -1.253751 0.938311 10.871803 -7.147830 -18.404841 1.931818 -0.429846 15.212777 -1.658030 -9.260991 0.006020 -1.941600 0.000001 -22.148900
5.203182 17.070614 2.150727 -13.640635 -86.515267 11.298400 -11.738575 5.612422 0.726949 3.532097 8.615596 10.890823 0.292436 2.554718 32.335636 1.402881 -0.483704 25.820096 -0.993200 0.000000 -75.441900 8.971749 -1.275209 0.852977 11.064467 -7.161904 -17.776323 1.931879 -0.448929 15.698767 -1.688939 -9.256691 -0.799769 -1.786500 0.000000 -20.021101
5.064172 17.079236 2.110719 -14.321772 -86.271469 11.835276 -11.859733 5.548052 0.662906 4.116192 8.949884 9.712117 0.375621 2.602545 34.572801 1.562471 -0.000954 27.098347 -0.828200 0.000000 -71.574700 8.914290 -1.297473 0.761004 11.283551 -7.235103 -17.071009 1.940660 -0.448703 15.997423 -1.726525 -9.293522 -1.590869 -1.641000 -0.000000 -18.070000
4.927521 17.086714 2.071253 -14.953468 -85.999990 12.320219 -11.975189 5.467715 0.592298 4.663201 9.285366 8.481752 0.448164 2.652339 36.815560 1.722811 0.861830 28.006399 -0.431400 -0.000000 -67.420200 8.852238 -1.321541 0.661871 11.518730 -7.377443 -16.305452 1.956511 -0.433510 16.134164 -1.766861 -9.353055 -2.343626 -1.504400 -0.000000 -16.424500
4.792861 17.093404 2.032703 -15.551098 -85.711243 12.772449 -12.083542 5.374259 0.517339 5.158897 9.614292 7.214270 0.513701 2.707441 39.030670 1.881289 2.110979 28.497162 0.202600 0.000000 -63.363300 8.786033 -1.348443 0.558358 11.764375 -7.581516 -15.495913 1.978004 -0.406495 16.133651 -1.807883 -9.425445 -3.045920 -1.376900 -0.000000 -15.115400
4.660112 17.099721 1.995447 -16.189659 -85.416776 13.270023 -12.187396 5.270409 0.438482 5.604316 9.940637 5.910182 0.575492 2.771279 41.204208 2.033385 3.690028 28.508952 1.029799 0.000000 -59.339300 8.712081 -1.379080 0.457399 12.023450 -7.815786 -14.653406 2.003814 -0.369081 16.009170 -1.850860 -9.518808 -3.689140 -1.261199 -0.000000 -14.113499
4.528985 17.106155 1.959645 -16.853319 -85.129878 13.800054 -12.285350 5.158686 0.356611 5.988641 10.263176 4.583667 0.636149 2.844753 43.305352 2.176402 5.518520 28.023481 1.978300 -0.000000 -55.441100 8.631755 -1.413798 0.362933 12.288879 -8.061655 -13.787913 2.032390 -0.323968 15.781105 -1.894482 -9.626812 -4.267512 -1.157600 0.000000 -13.418300
4.399411 17.113079 1.925029 -17.426499 -84.866282 14.243169 -12.370225 5.041554 0.273998 6.282128 10.570068 3.264029 0.696705 2.925281 45.286240 2.310841 7.511388 27.089640 2.968900 0.000000 -52.145000 8.554507 -1.450927 0.273565 12.536440 -8.324916 -12.916200 2.061723 -0.276032 15.489383 -1.933361 -9.718668 -4.787552 -1.061100 0.000000 -13.011700
4.271252 17.120858 1.891391 -17.866580 -84.639169 14.557531 -12.438746 4.922364 0.191122 6.473866 10.864419 1.961747 0.756349 3.010744 47.124833 2.433145 9.546054 25.726786 3.899700 -0.000000 -49.261000 8.485634 -1.489346 0.191499 12.751926 -8.594554 -12.050107 2.090328 -0.227902 15.160174 -1.965357 -9.780626 -5.258947 -0.968900 -0.000000 -12.828000
4.144310 17.129828 1.858891 -18.271305 -84.458345 14.847622 -12.496269 4.802311 0.107994 6.577564 11.153333 0.675534 0.812850 3.098390 48.804775 2.540054 11.497762 23.979318 4.675000 0.000001 -46.679800 8.418602 -1.529120 0.124982 12.947832 -8.817944 -11.177125 2.117265 -0.177358 14.773334 -1.996624 -9.847527 -5.675516 -0.887500 -0.000000 -12.812200
4.018551 17.139998 1.826672 -18.434734 -84.334250 14.899703 -12.530014 4.685618 0.027276 6.556756 11.425372 -0.567350 0.862584 3.182526 50.291272 2.630400 13.287436 21.939269 5.242900 0.000000 -44.431199 8.371842 -1.566999 0.066099 13.083519 -9.038265 -10.323181 2.140728 -0.130439 14.386535 -2.017405 -9.861398 -6.062401 -0.805900 -0.000001 -12.907600
3.893784 17.151421 1.794854 -18.464209 -84.270396 14.829164 -12.546740 4.571570 -0.051099 6.432076 11.683938 -1.769058 0.901592 3.259191 51.571388 2.702712 14.839196 19.702155 5.570800 0.000000 -42.520600 8.336492 -1.602815 0.022328 13.178264 -9.198550 -9.465135 2.160026 -0.083125 13.961360 -2.036281 -9.870820 -6.409909 -0.732000 0.000000 -13.072700
3.769888 17.163896 1.762782 -18.204699 -84.268672 14.476064 -12.537643 4.464218 -0.124140 6.182508 11.921428 -2.917138 0.925984 3.324132 52.632841 2.754564 16.112718 17.345725 5.658800 0.000000 -40.738500 8.326351 -1.634760 -0.014215 13.203134 -9.345952 -8.625587 2.174369 -0.039567 13.541667 -2.045098 -9.828504 -6.737848 -0.657500 0.000000 -13.260800
3.646961 17.177114 1.730460 -17.713699 -84.327144 13.899030 -12.507652 4.361066 -0.192584 5.825830 12.135458 -4.008247 0.933197 3.374031 53.465873 2.787448 17.098816 14.995067 5.545000 0.000000 -39.359699 8.335012 -1.661992 -0.040939 13.173015 -9.442879 -7.782199 2.183078 0.003247 13.094749 -2.050668 -9.773444 -7.038007 -0.588500 0.000000 -13.456300
3.524842 17.190674 1.697642 -16.916361 -84.439372 13.022185 -12.454502 4.264278 -0.254330 5.362598 12.324482 -5.044028 0.921610 3.407611 54.078968 2.799329 17.795748 12.691837 5.263399 0.000000 -37.990000 8.367230 -1.684672 -0.062243 13.079950 -9.519331 -6.947591 2.186356 0.043753 12.640542 -2.049142 -9.684296 -7.318648 -0.521500 -0.000000 -13.634501
3.403482 17.204137 1.664401 -15.815133 -84.598032 11.848755 -12.381314 4.172070 -0.308835 4.805856 12.485065 -6.026010 0.891546 3.423677 54.475562 2.793173 18.236489 10.521735 4.875001 0.000000 -36.824500 8.419904 -1.702860 -0.079878 12.932365 -9.574040 -6.118009 2.184549 0.082716 12.172382 -2.042118 -9.570593 -7.578646 -0.458200 0.000000 -13.791100
3.282821 17.217113 1.630865 -14.407578 -84.794271 10.377232 -12.291191 4.083256 -0.356250 4.170749 12.618937 -6.959285 0.844278 3.422839 54.670079 2.770860 18.455760 8.514208 4.425900 -0.000000 -35.731700 8.489940 -1.717533 -0.095291 12.738954 -9.611639 -5.293055 2.178234 0.120344 11.689633 -2.030327 -9.437220 -7.816832 -0.399200 0.000000 -13.931600
3.162884 17.229158 1.597251 -12.705618 -85.019452 8.618865 -12.188039 3.995806 -0.396823 3.473801 12.727670 -7.850496 0.782086 3.406151 54.678523 2.736183 18.500986 6.689637 3.958000 -0.000000 -34.709200 8.573222 -1.729660 -0.110058 12.510671 -9.637316 -4.475080 2.168359 0.156640 11.194465 -2.014356 -9.287748 -8.033195 -0.345100 -0.000000 -14.065199
3.043691 17.239961 1.563824 -10.727410 -85.265894 6.592235 -12.075793 3.907660 -0.431067 2.731667 12.814168 -8.707015 0.707460 3.375092 54.518938 2.693442 18.421498 5.043709 3.499500 0.000000 -33.716400 8.665354 -1.740494 -0.125078 12.258778 -9.654874 -3.667282 2.155974 0.191459 10.691028 -1.994736 -9.125083 -8.227961 -0.296000 0.000000 -14.207000
2.925137 17.249317 1.530946 -8.518399 -85.528169 4.345917 -11.959081 3.816632 -0.459469 1.962282 12.882080 -9.538549 0.622766 3.331381 54.210830 2.647301 18.265029 3.556568 3.066301 -0.000000 -32.731200 8.760529 -1.751386 -0.140125 11.998163 -9.663069 -2.873500 2.142436 0.225031 10.182558 -1.972674 -8.954868 -8.402759 -0.251999 -0.000000 -14.365700
2.807122 17.257151 1.498840 -6.094260 -85.802367 1.897049 -11.840446 3.721021 -0.482664 1.178991 12.934173 -10.350776 0.529946 3.276380 53.771273 2.602342 18.075037 2.196838 2.664100 -0.000000 -31.720800 8.855558 -1.763501 -0.155301 11.737323 -9.664169 -2.098318 2.128735 0.256988 9.676486 -1.948417 -8.777432 -8.560200 -0.212400 -0.000000 -14.557800
2.689747 17.263432 1.467742 -3.480201 -86.086089 -0.729709 -11.722212 3.619044 -0.501044 0.393786 12.971908 -11.149780 0.430643 3.211267 53.216198 2.562784 17.887772 0.931190 2.292100 0.000000 -30.677899 8.947132 -1.777675 -0.170128 11.485624 -9.657118 -1.345834 2.115902 0.287188 9.178584 -1.922622 -8.594838 -8.704030 -0.176599 0.000000 -14.791200
2.572890 17.268245 1.437787 -0.690697 -86.377660 -3.516580 -11.605890 3.509341 -0.514617 -0.382834 12.995313 -11.941681 0.326019 3.136845 52.558868 2.532019 17.729434 -0.272115 1.944799 -0.000000 -29.600800 9.032594 -1.794551 -0.183543 11.251559 -9.638578 -0.620445 2.104809 0.315861 8.692507 -1.896311 -8.410754 -8.838446 -0.143800 -0.000000 -15.065400
2.456418 17.271806 1.409003 2.321164 -86.674237 -6.508646 -11.490912 3.391269 -0.522661 -1.146639 13.000778 -12.726869 0.217273 3.053143 51.808129 2.512639 17.617676 -1.435447 1.616500 -0.000001 -28.499400 9.112191 -1.815004 -0.195015 11.035854 -9.610884 0.075008 2.095887 0.342750 8.222991 -1.869378 -8.223261 -8.967259 -0.113299 0.000000 -15.382001
2.340355 17.274223 1.381359 5.602458 -86.971660 -9.752976 -11.377160 3.263760 -0.524466 -1.892701 12.983532 -13.507877 0.105683 2.960191 50.972248 2.506040 17.559335 -2.571686 1.301300 -0.000000 -27.390500 9.185511 -1.839416 -0.203902 10.841732 -9.573121 0.737820 2.089506 0.368025 7.770259 -1.842593 -8.035313 -9.093508 -0.084400 -0.000000 -15.732600
2.224574 17.275710 1.354704 9.274186 -87.262395 -13.370150 -11.263474 3.126377 -0.518558 -2.621442 12.936056 -14.281999 -0.007088 2.857340 50.055312 2.512621 17.553934 -3.680470 0.996300 0.000000 -26.295200 9.254092 -1.868874 -0.210179 10.665437 -9.530701 1.367125 2.085647 0.391402 7.334808 -1.815805 -7.845546 -9.218920 -0.056800 0.000000 -16.114700
2.108885 17.276460 1.328920 13.436834 -87.536906 -17.458297 -11.150442 2.978637 -0.502440 -3.330949 12.849258 -15.050059 -0.118937 2.744083 49.061585 2.531735 17.594453 -4.750001 0.701800 0.000000 -25.237400 9.317300 -1.904569 -0.212796 10.507718 -9.484662 1.962364 2.084429 0.413387 6.911504 -1.789949 -7.658621 -9.344010 -0.030400 0.000000 -16.502701
1.993327 17.276490 1.303697 18.344970 -87.780887 -22.276381 -11.037601 2.820022 -0.476657 -4.028035 12.717606 -15.801986 -0.227844 2.619848 47.991415 2.561386 17.667790 -5.763709 0.419999 0.000000 -24.235900 9.377746 -1.947538 -0.214953 10.354333 -9.448928 2.525562 2.085225 0.432578 6.502388 -1.763634 -7.467620 -9.467718 -0.005200 -0.000001 -16.914099
1.877868 17.275843 1.278823 24.174852 -87.978873 -28.002852 -10.928002 2.650892 -0.439907 -4.715847 12.535475 -16.534146 -0.331813 2.484899 46.846897 2.598953 17.759473 -6.699322 0.156100 -0.000000 -23.301900 9.433594 -1.998545 -0.218160 10.198426 -9.431483 3.058330 2.087746 0.448773 6.105065 -1.736725 -7.272478 -9.587894 0.018500 0.000000 -17.344000
1.762271 17.274669 1.254289 30.903375 -88.120144 -34.612868 -10.827250 2.474279 -0.389145 -5.393496 12.299460 -17.248490 -0.429642 2.341108 45.630014 2.641251 17.854424 -7.530653 -0.081800 0.000001 -22.457900 9.478988 -2.056802 -0.221561 10.041672 -9.429809 3.564060 2.091636 0.463514 5.712866 -1.710796 -7.082528 -9.701961 0.039900 0.000000 -17.750500
1.646510 17.272861 1.229919 38.492729 -88.195739 -42.072438 -10.738248 2.295491 -0.325042 -6.065882 12.014188 -17.940010 -0.522086 2.191827 44.340932 2.684511 17.936446 -8.240096 -0.286900 0.000000 -21.706999 9.512211 -2.118744 -0.228518 9.873515 -9.451174 4.046930 2.095609 0.477136 5.329575 -1.684929 -6.894424 -9.807458 0.059000 0.000000 -18.142100
